Coordinates
version=1
nRows=19
nColumns=24
inDegrees=yes

Units are S.I. units (second, meters, Newtons, ...)
Angles are in degrees.

endheader
time	pelvis_tilt	pelvis_list	pelvis_rotation	pelvis_tx	pelvis_ty	pelvis_tz	hip_flexion_r	hip_adduction_r	hip_rotation_r	knee_angle_r	ankle_angle_r	subtalar_angle_r	mtp_angle_r	hip_flexion_l	hip_adduction_l	hip_rotation_l	knee_angle_l	ankle_angle_l	subtalar_angle_l	mtp_angle_l	lumbar_extension	lumbar_bending	lumbar_rotation
      4.17500000	    -17.25428973	      3.55935614	      0.09886460	     -1.55639599	     -0.00910678	     -0.32669465	     36.28677001	     -5.58109246	     -3.06153443	    -58.37785717	     -1.53307004	     -9.97883167	     17.95327775	     19.80076261	      7.38125041	     -5.20981177	    -14.69391353	      4.74459488	     -0.80345828	      7.93143052	     21.66787730	     -5.46515255	    -14.22100059
      4.18000000	    -17.24272288	      3.29377509	      0.36538896	     -1.55061733	     -0.00862906	     -0.32735258	     36.78642544	     -5.46439663	     -3.60845634	    -57.52366527	     -1.10548981	    -10.13440421	     17.66870304	     19.05228614	      7.24176777	     -4.98861740	    -14.11086604	      4.79759421	     -0.55463548	      7.95559226	     21.57420961	     -5.32783636	    -14.67735231
      4.18500000	    -17.23538824	      3.03850503	      0.62190588	     -1.54486733	     -0.00822498	     -0.32796784	     37.27745158	     -5.35426664	     -4.14372454	    -56.61635725	     -0.71101111	    -10.24853437	     17.40677098	     18.31747934	      7.09857927	     -4.79594622	    -13.53579090	      4.85557813	     -0.29146598	      7.98274729	     21.48430095	     -5.19758988	    -15.11341048
      4.19000000	    -17.22764146	      2.79602582	      0.87004492	     -1.53914256	     -0.00789079	     -0.32854027	     37.75447283	     -5.25304512	     -4.66704028	    -55.65808396	     -0.34750130	    -10.31959760	     17.16866072	     17.59091047	      6.95624588	     -4.64476654	    -12.96679574	      4.91476673	     -0.01919406	      8.01467330	     21.39041696	     -5.07973303	    -15.53229002
      4.19500000	    -17.22094780	      2.56293578	      1.10942882	     -1.53343598	     -0.00762627	     -0.32907975	     38.21688585	     -5.15704689	     -5.17652900	    -54.64857173	     -0.00973507	    -10.33947502	     16.96158200	     16.87502896	      6.81235353	     -4.52905385	    -12.40758876	      4.97719956	      0.26679634	      8.05576837	     21.29711520	     -4.97065657	    -15.93387282
      4.20000000	    -17.20166042	      2.33966158	      1.34766732	     -1.52774919	     -0.00741025	     -0.32959706	     38.64709029	     -5.07133143	     -5.67959539	    -53.58776965	      0.29676683	    -10.31577940	     16.77252876	     16.15728767	      6.67000173	     -4.44437599	    -11.86293024	      5.04146391	      0.57405778	      8.11530602	     21.18678025	     -4.86833352	    -16.32931719
      4.20500000	    -17.18723753	      2.13406451	      1.56858820	     -1.52207622	     -0.00727796	     -0.33006536	     39.07078284	     -4.99101867	     -6.15486408	    -52.48399192	      0.57323835	    -10.23785510	     16.62050767	     15.45350763	      6.53373561	     -4.39418572	    -11.32886040	      5.12340885	      0.88767894	      8.19129697	     21.08321546	     -4.78076560	    -16.69633088
      4.21000000	    -17.18690130	      1.92463285	      1.78836677	     -1.51642727	     -0.00722472	     -0.33051960	     39.48743109	     -4.90967661	     -6.63252116	    -51.32634862	      0.84113663	    -10.09891691	     16.52031214	     14.78646923	      6.38807186	     -4.38604588	    -10.82657680	      5.20948075	      1.20182628	      8.27202175	     20.99000044	     -4.68947110	    -17.05869732
      4.21500000	    -17.24527597	      1.73631016	      1.95323909	     -1.51078648	     -0.00732935	     -0.33091640	     39.96513767	     -4.80792035	     -7.02434127	    -50.13489502	      1.09335162	     -9.87446674	     16.47795220	     14.18956335	      6.25246283	     -4.39836813	    -10.33634924	      5.31898071	      1.45712562	      8.32091847	     20.96802823	     -4.58956630	    -17.34166646
      4.22000000	    -17.19298341	      1.52630718	      2.21337695	     -1.50517379	     -0.00731317	     -0.33135577	     40.26579671	     -4.75155041	     -7.54085886	    -48.86099081	      1.29380057	     -9.69194642	     16.43072720	     13.50981447	      6.09903053	     -4.42257222	     -9.90267986	      5.40794916	      1.85013891	      8.43718999	     20.81054924	     -4.51889470	    -17.74041225
      4.22500000	    -17.23089008	      1.33690943	      2.37854805	     -1.49953317	     -0.00752838	     -0.33170849	     40.66950058	     -4.64782123	     -7.93576215	    -47.56868715	      1.50775539	     -9.40462299	     16.41559665	     12.92522551	      5.95262225	     -4.47908535	     -9.47066416	      5.54542465	      2.11121256	      8.51083337	     20.76336236	     -4.42516533	    -18.02146298
      4.23000000	    -17.19841999	      1.13951005	      2.60489897	     -1.49393621	     -0.00767398	     -0.33209845	     40.95756016	     -4.57781958	     -8.39853077	    -46.21316533	      1.64276756	     -9.13454241	     16.40327330	     12.29248377	      5.79764752	     -4.52391556	     -9.07861710	      5.66323082	      2.48572981	      8.62793900	     20.62816774	     -4.34474579	    -18.37296576
      4.23500000	    -17.20207207	      0.94901713	      2.78249852	     -1.48830132	     -0.00794655	     -0.33242538	     41.26592475	     -4.47654125	     -8.80376007	    -44.81543150	      1.77577762	     -8.82011406	     16.39513184	     11.71221738	      5.63930508	     -4.58714987	     -8.71878680	      5.80908117	      2.78917716	      8.72877099	     20.54253209	     -4.25558604	    -18.66113757
      4.24000000	    -17.21449552	      0.75832788	      2.96175775	     -1.48267630	     -0.00829329	     -0.33273692	     41.56074666	     -4.37241302	     -9.20187126	    -43.37808226	      1.87817956	     -8.49405551	     16.37862669	     11.16074457	      5.47810860	     -4.64755166	     -8.39156855	      5.96839533	      3.07883912	      8.82001464	     20.46368465	     -4.16652872	    -18.94005037
      4.24500000	    -17.23089579	      0.56846524	      3.13103763	     -1.47704435	     -0.00870510	     -0.33302823	     41.83580057	     -4.25900437	     -9.58814115	    -41.90002322	      1.94668219	     -8.15977533	     16.34813075	     10.63138744	      5.31236202	     -4.70170733	     -8.09878513	      6.14205241	      3.35246162	      8.90110795	     20.39087254	     -4.07420670	    -19.20543466
      4.25000000	    -17.24745709	      0.37752772	      3.29636173	     -1.47140123	     -0.00917421	     -0.33329527	     42.08415721	     -4.13694541	     -9.96753078	    -40.38109828	      1.98563547	     -7.82678530	     16.30006063	     10.11920430	      5.13979963	     -4.74630863	     -7.83862159	      6.32931074	      3.61568830	      8.97313937	     20.31892832	     -3.97948680	    -19.46608925
      4.25500000	    -17.26630600	      0.19005896	      3.45095176	     -1.46575894	     -0.00970564	     -0.33353030	     42.31055120	     -3.99941426	    -10.30769326	    -38.82425489	      1.99964389	     -7.49210498	     16.23445761	      9.62824995	      4.96469702	     -4.77983303	     -7.61454523	      6.53062128	      3.85508594	      9.03271791	     20.24850508	     -3.88736844	    -19.71736469
      4.26000000	    -17.30211058	      0.00163604	      3.61173832	     -1.46008396	     -0.01031520	     -0.33378436	     42.52985940	     -3.87083676	    -10.68282076	    -37.24095632	      1.99286816	     -7.17058379	     16.15652293	      9.17006944	      4.78939481	     -4.79141921	     -7.42232446	      6.74398191	      4.07326710	      9.07487557	     20.20152990	     -3.78926498	    -19.95368619
      4.26500000	    -17.40773614	     -0.14726112	      3.70751841	     -1.45443106	     -0.01108768	     -0.33394975	     42.82377371	     -3.72186177	    -10.92428467	    -35.64692525	      1.97781682	     -6.80678003	     16.09355851	      8.80416795	      4.64914297	     -4.80138910	     -7.26910845	      6.95935652	      4.16838090	      9.09011781	     20.22923959	     -3.70834122	    -20.08179756
